<?xml version="1.0" encoding="UTF-8" standalone="no"?>
<svg
   xmlns:dc="http://purl.org/dc/elements/1.1/"
   xmlns:cc="http://creativecommons.org/ns#"
   xmlns:rdf="http://www.w3.org/1999/02/22-rdf-syntax-ns#"
   xmlns:svg="http://www.w3.org/2000/svg"
   xmlns="http://www.w3.org/2000/svg"
   xmlns:sodipodi="http://sodipodi.sourceforge.net/DTD/sodipodi-0.dtd"
   xmlns:inkscape="http://www.inkscape.org/namespaces/inkscape"
   height="8.26772in"
   style="shape-rendering:geometricPrecision; text-rendering:geometricPrecision; image-rendering:optimizeQuality; fill-rule:evenodd; clip-rule:evenodd"
   version="1.1"
   viewBox="0 0 826772 826772"
   width="8.26772in"
   xml:space="preserve"
   id="svg38"
   sodipodi:docname="facebook.svg"
   inkscape:version="1.0.2-2 (e86c870879, 2021-01-15)"><metadata
     id="metadata42"><rdf:RDF><cc:Work
         rdf:about=""><dc:format>image/svg+xml</dc:format><dc:type
           rdf:resource="http://purl.org/dc/dcmitype/StillImage" /></cc:Work></rdf:RDF></metadata><sodipodi:namedview
     pagecolor="#ffffff"
     bordercolor="#666666"
     borderopacity="1"
     objecttolerance="10"
     gridtolerance="10"
     guidetolerance="10"
     inkscape:pageopacity="0"
     inkscape:pageshadow="2"
     inkscape:window-width="1366"
     inkscape:window-height="715"
     id="namedview40"
     showgrid="false"
     inkscape:zoom="0.24009702"
     inkscape:cx="-200.57714"
     inkscape:cy="319.70256"
     inkscape:window-x="-8"
     inkscape:window-y="-8"
     inkscape:window-maximized="1"
     inkscape:current-layer="svg38" /><defs
     id="defs29"><style
       type="text/css"
       id="style27">
   <![CDATA[
    .fil0 {fill:#DD4B39}
    .fil1 {fill:#2E373C;fill-rule:nonzero}
    .fil2 {fill:white;fill-rule:nonzero}
   ]]>
  </style></defs><g
     id="Layer_x0020_1"><polygon
       class="fil0"
       points="0,0 826772,0 826772,826772 0,826772 "
       id="polygon31"
       style="fill:#007f7f;fill-opacity:1" /><path
       class="fil2"
       d="M326625 693276l111957 0c0,0 0,-154538 0,-279890l83090 0 10207 -111957 -88970 0 0 -44763c0,-21813 14537,-26890 24745,-26890 10204,0 62807,0 62807,0l0 -95926 -86487 -354c-96002,0 -117815,71538 -117815,117329l0 50604 -55513 0 0 111957 55979 0c0,126865 0,279890 0,279890z"
       id="path35" /></g></svg>
