<?xml version="1.0" encoding="UTF-8" standalone="no"?>
<svg
   xmlns:dc="http://purl.org/dc/elements/1.1/"
   xmlns:cc="http://creativecommons.org/ns#"
   xmlns:rdf="http://www.w3.org/1999/02/22-rdf-syntax-ns#"
   xmlns:svg="http://www.w3.org/2000/svg"
   xmlns="http://www.w3.org/2000/svg"
   xmlns:sodipodi="http://sodipodi.sourceforge.net/DTD/sodipodi-0.dtd"
   xmlns:inkscape="http://www.inkscape.org/namespaces/inkscape"
   height="8.26772in"
   style="shape-rendering:geometricPrecision; text-rendering:geometricPrecision; image-rendering:optimizeQuality; fill-rule:evenodd; clip-rule:evenodd"
   version="1.1"
   viewBox="0 0 826772 826772"
   width="8.26772in"
   xml:space="preserve"
   id="svg965"
   sodipodi:docname="google+.svg"
   inkscape:version="1.0.2-2 (e86c870879, 2021-01-15)"><metadata
     id="metadata969"><rdf:RDF><cc:Work
         rdf:about=""><dc:format>image/svg+xml</dc:format><dc:type
           rdf:resource="http://purl.org/dc/dcmitype/StillImage" /></cc:Work></rdf:RDF></metadata><sodipodi:namedview
     pagecolor="#ffffff"
     bordercolor="#666666"
     borderopacity="1"
     objecttolerance="10"
     gridtolerance="10"
     guidetolerance="10"
     inkscape:pageopacity="0"
     inkscape:pageshadow="2"
     inkscape:window-width="1366"
     inkscape:window-height="715"
     id="namedview967"
     showgrid="false"
     inkscape:zoom="0.3452181"
     inkscape:cx="264.86696"
     inkscape:cy="384.69103"
     inkscape:window-x="-8"
     inkscape:window-y="-8"
     inkscape:window-maximized="1"
     inkscape:current-layer="svg965" /><defs
     id="defs921"><style
       type="text/css"
       id="style919">
   <![CDATA[
    .fil0 {fill:#DD4B39}
    .fil2 {fill:#2E373C;fill-rule:nonzero}
    .fil1 {fill:white;fill-rule:nonzero}
   ]]>
  </style></defs><g
     id="g1567"
     transform="translate(-30174.159,39226.407)"><polygon
       class="fil0"
       points="0,0 826772,0 826772,826772 0,826772 "
       id="polygon923"
       style="clip-rule:evenodd;fill:#007f7f;fill-rule:evenodd;image-rendering:optimizeQuality;shape-rendering:geometricPrecision;text-rendering:geometricPrecision;fill-opacity:1"
       transform="translate(30174.143,-39226.423)" /><path
       class="fil1"
       d="m 572181.14,465373.58 h 22759 c 6108,0 11035,-4945 11035,-11054 v -80019 h 79860 c 6074,0 11035,-4980 11035,-11088 v -22777 c 0,-6109 -4961,-11088 -11035,-11088 h -79860 v -80020 c 0,-6072 -4927,-11051 -11035,-11051 h -22759 c -6111,0 -11072,4979 -11072,11051 v 80020 h -79860 c -6074,0 -11035,4979 -11035,11088 v 22777 c 0,6108 4961,11088 11035,11088 h 79860 v 80019 c 19,6109 4980,11054 11072,11054 z"
       id="path959"
       style="clip-rule:evenodd;fill:#ffffff;fill-rule:nonzero;image-rendering:optimizeQuality;shape-rendering:geometricPrecision;text-rendering:geometricPrecision" /><path
       class="fil1"
       d="m 257577.14,604753.58 c 20200,5155 41935,7769 64481,7769 20271,0 39586,-2668 57455,-7841 55688,-16171 91689,-57240 91689,-104683 0,-45501 -14584,-72728 -53764,-100501 -16790,-11920 -32082,-29364 -32345,-34766 0,-9783 864,-14444 22758,-31553 28304,-22176 43893,-51381 43893,-82225 0,-27950 -8510,-52794 -23077,-70238 h 11285 c 2346,0 4624,-723 6478,-2065 l 31413,-22796 c 3900,-2806 5542,-7803 4041,-12376 -1464,-4574 -5702,-7682 -10504,-7682 h -140493 c -15379,0 -31006,2702 -46313,7982 -51203,17691 -87011,61390 -87011,106309 0,63545 49139,111730 114873,113249 -1272,5049 -1926,10010 -1926,14883 0,9784 2490,19070 7594,28022 -619,35 -1167,35 -1836,35 -62629,0 -119183,30793 -140634,76629 -5615,11901 -8441,23961 -8441,35844 0,11583 2967,22705 8757,33175 13525,24171 42482,42942 81627,52829 z m 12518,-356396 v 0 c -3037,-23290 1820,-44193 13419,-57418 7487,-8564 17268,-13068 28250,-13068 l 1273,37 c 31040,901 60720,35561 66210,77246 3072,23359 -2101,45291 -13825,58709 -7485,8562 -17144,13066 -28585,13066 0,0 0,0 -35,0 h -478 c -30422,-901 -60772,-36937 -66229,-78572 z m 59698,193144 v 0 l 1270,35 c 10418,106 20553,1660 30140,4591 3284,2243 6446,4414 9517,6497 22140,15132 36761,25126 40856,41159 936,4007 1414,8051 1414,11952 0,41212 -30687,62116 -91214,62116 -45907,0 -81802,-28198 -81802,-64200 18,-33105 41987,-62150 89819,-62150 z"
       id="path961"
       style="clip-rule:evenodd;fill:#ffffff;fill-rule:nonzero;image-rendering:optimizeQuality;shape-rendering:geometricPrecision;text-rendering:geometricPrecision" /></g></svg>
