<?xml version="1.0" encoding="UTF-8" standalone="no"?>
<svg
   xmlns:dc="http://purl.org/dc/elements/1.1/"
   xmlns:cc="http://creativecommons.org/ns#"
   xmlns:rdf="http://www.w3.org/1999/02/22-rdf-syntax-ns#"
   xmlns:svg="http://www.w3.org/2000/svg"
   xmlns="http://www.w3.org/2000/svg"
   xmlns:sodipodi="http://sodipodi.sourceforge.net/DTD/sodipodi-0.dtd"
   xmlns:inkscape="http://www.inkscape.org/namespaces/inkscape"
   height="8.2677202in"
   style="clip-rule:evenodd;fill-rule:evenodd;image-rendering:optimizeQuality;shape-rendering:geometricPrecision;text-rendering:geometricPrecision"
   version="1.1"
   viewBox="0 0 826772 826772"
   width="8.2677202in"
   xml:space="preserve"
   id="svg1597"
   sodipodi:docname="instagram.svg"
   inkscape:version="1.0.2-2 (e86c870879, 2021-01-15)"><metadata
     id="metadata1601"><rdf:RDF><cc:Work
         rdf:about=""><dc:format>image/svg+xml</dc:format><dc:type
           rdf:resource="http://purl.org/dc/dcmitype/StillImage" /></cc:Work></rdf:RDF></metadata><sodipodi:namedview
     pagecolor="#ffffff"
     bordercolor="#666666"
     borderopacity="1"
     objecttolerance="10"
     gridtolerance="10"
     guidetolerance="10"
     inkscape:pageopacity="0"
     inkscape:pageshadow="2"
     inkscape:window-width="1366"
     inkscape:window-height="715"
     id="namedview1599"
     showgrid="false"
     inkscape:zoom="3.9056969"
     inkscape:cx="712.7309"
     inkscape:cy="85.330923"
     inkscape:window-x="-8"
     inkscape:window-y="-8"
     inkscape:window-maximized="1"
     inkscape:current-layer="svg1597" /><defs
     id="defs1588"><style
       type="text/css"
       id="style1586">
   <![CDATA[
    .fil0 {fill:#DD4B39}
    .fil1 {fill:#2E373C;fill-rule:nonzero}
    .fil2 {fill:white;fill-rule:nonzero}
   ]]>
  </style></defs><g
     id="Layer_x0020_1"><polygon
       class="fil0"
       points="826772,826772 0,826772 0,0 826772,0 "
       id="polygon1590"
       style="fill:#007f7f;fill-opacity:1" /><path
       class="fil2"
       d="M 537206,190528 H 263773 c -47497,0 -86126,38629 -86126,86128 v 91000 182460 c 0,47499 38629,86128 86126,86128 h 273433 c 47498,0 86157,-38629 86157,-86128 V 367656 276656 c 0,-47499 -38659,-86128 -86157,-86128 z m 24722,51392 v 0 l 9835,-61 v 9836 65699 l -75266,252 -268,-75534 z M 336901,367656 v 0 c 14279,-19761 37425,-32702 63604,-32702 26178,0 49325,12941 63604,32702 9285,12881 14857,28675 14857,45730 0,43235 -35226,78432 -78461,78432 -43264,0 -78461,-35197 -78461,-78432 0,-17055 5572,-32849 14857,-45730 z m 243048,182460 v 0 c 0,23564 -19179,42716 -42743,42716 H 263773 c -23562,0 -42714,-19152 -42714,-42716 V 367656 h 66530 c -5748,14128 -8959,29565 -8959,45730 0,67199 54676,121873 121875,121873 67199,0 121873,-54674 121873,-121873 0,-16165 -3254,-31602 -8989,-45730 h 66560 z"
       id="path1594" /></g></svg>
