<?xml version="1.0" encoding="UTF-8" standalone="no"?>
<svg
   xmlns:dc="http://purl.org/dc/elements/1.1/"
   xmlns:cc="http://creativecommons.org/ns#"
   xmlns:rdf="http://www.w3.org/1999/02/22-rdf-syntax-ns#"
   xmlns:svg="http://www.w3.org/2000/svg"
   xmlns="http://www.w3.org/2000/svg"
   xmlns:sodipodi="http://sodipodi.sourceforge.net/DTD/sodipodi-0.dtd"
   xmlns:inkscape="http://www.inkscape.org/namespaces/inkscape"
   height="8.26772in"
   style="shape-rendering:geometricPrecision; text-rendering:geometricPrecision; image-rendering:optimizeQuality; fill-rule:evenodd; clip-rule:evenodd"
   version="1.1"
   viewBox="0 0 826772 826772"
   width="8.26772in"
   xml:space="preserve"
   id="svg2192"
   sodipodi:docname="pinterest.svg"
   inkscape:version="1.0.2-2 (e86c870879, 2021-01-15)"><metadata
     id="metadata2196"><rdf:RDF><cc:Work
         rdf:about=""><dc:format>image/svg+xml</dc:format><dc:type
           rdf:resource="http://purl.org/dc/dcmitype/StillImage" /></cc:Work></rdf:RDF></metadata><sodipodi:namedview
     pagecolor="#ffffff"
     bordercolor="#666666"
     borderopacity="1"
     objecttolerance="10"
     gridtolerance="10"
     guidetolerance="10"
     inkscape:pageopacity="0"
     inkscape:pageshadow="2"
     inkscape:window-width="1366"
     inkscape:window-height="715"
     id="namedview2194"
     showgrid="false"
     inkscape:zoom="0.6904362"
     inkscape:cx="344.70962"
     inkscape:cy="396.85057"
     inkscape:window-x="-8"
     inkscape:window-y="-8"
     inkscape:window-maximized="1"
     inkscape:current-layer="svg2192" /><defs
     id="defs2183"><style
       type="text/css"
       id="style2181">
   <![CDATA[
    .fil0 {fill:#DD4B39}
    .fil1 {fill:#2E373C;fill-rule:nonzero}
    .fil2 {fill:white;fill-rule:nonzero}
   ]]>
  </style></defs><g
     id="Layer_x0020_1"><polygon
       class="fil0"
       points="0,0 826772,0 826772,826772 0,826772 "
       id="polygon2185"
       style="fill:#007f7f;fill-opacity:1" /><path
       class="fil2"
       d="M278101 663357c473,3460 5080,4286 7156,1687 2972,-3729 41252,-49490 54268,-95183 3679,-12963 21114,-79940 21114,-79940 10466,19293 40984,36223 73444,36223 96617,0 162161,-85223 162161,-199328 0,-86272 -75537,-166615 -190300,-166615 -142764,15 -214788,99080 -214788,181689 0,50013 19579,94523 61523,111133 6922,2700 13082,101 15058,-7293 1400,-5113 4674,-17959 6160,-23377 1976,-7291 1232,-9823 -4321,-16186 -12137,-13809 -19867,-31717 -19867,-57037 0,-73509 56868,-139322 147999,-139322 80699,0 125059,47735 125059,111455 0,83872 -38367,154649 -95250,154649 -31480,0 -55028,-25150 -47498,-56006 9063,-36865 26567,-76617 26567,-103217 0,-23802 -13216,-43651 -40544,-43651 -32156,0 -57982,32172 -57982,75266 0,27462 9605,46046 9605,46046 0,0 -32913,134832 -38670,158481 -11461,47060 -1722,104719 -894,110526z"
       id="path2189" /></g></svg>
